<?xml version="1.0" ?><svg height="59px" version="1.1" viewBox="0 0 56 59" width="56px" xmlns="http://www.w3.org/2000/svg" xmlns:xlink="http://www.w3.org/1999/xlink"><title/><desc/><defs/><g fill="none" fill-rule="evenodd" id="Page-1" stroke="none" stroke-width="1"><g id="014---Wreath" transform="translate(1.000000, 1.000000)"><g id="Colour"><path d="M27.06,0 C26.65,0 26.24,0.01 25.83,0.04 C40.1486785,0.777524322 51.3800989,12.60234 51.3800989,26.94 C51.3800989,41.27766 40.1486785,53.1024757 25.83,53.84 C26.24,53.87 26.65,53.88 27.06,53.88 C41.9385512,53.88 54,41.8185512 54,26.94 C54,12.0614488 41.9385512,5.32907052e-15 27.06,0 Z" fill="#00939F" id="Shape"/><path d="M25.83,0.04 C25.7771379,0.0299732878 25.7228621,0.0299732878 25.67,0.04 C11.3513215,0.777524322 0.119901127,12.60234 0.119901127,26.94 C0.119901127,41.27766 11.3513215,53.1024757 25.67,53.84 C25.7228621,53.8500267 25.7771379,53.8500267 25.83,53.84 C40.1486785,53.1024757 51.3800989,41.27766 51.3800989,26.94 C51.3800989,12.60234 40.1486785,0.777524322 25.83,0.04 L25.83,0.04 Z M27.06,44.88 C26.62,44.88 26.18,44.86 25.75,44.83 C16.3755848,44.1448374 9.11983451,36.3394206 9.11983451,26.94 C9.11983451,17.5405794 16.3755848,9.7351626 25.75,9.05 C26.18,9.02 26.62,9 27.06,9 C36.9679884,9 45,17.0320116 45,26.94 C45,36.8479884 36.9679884,44.88 27.06,44.88 Z" fill="#00C6DB" id="Shape"/><path d="M46,46.88 L46,52.12 C46.0003048,53.317455 45.4636583,54.4519501 44.5377429,55.2112783 C43.6118274,55.9706064 42.3942201,56.2747462 41.22,56.04 L40.37,55.87 L31,54 L23,54 L12.78,56.04 C12.0616187,56.1868427 11.316377,56.1279166 10.63,55.87 C9.0502713,55.299661 7.9981805,53.7995315 8,52.12 L8,46.88 C7.99816271,45.2004629 9.05025997,43.7003242 10.63,43.13 C11.3163836,42.8721128 12.0616169,42.8131874 12.78,42.96 L23,45 L31,45 L40.37,43.13 L41.22,42.96 C42.3942179,42.7252691 43.6118167,43.0294147 44.5377282,43.7887396 C45.4636397,44.5480645 46.0002901,45.6825501 46,46.88 Z" fill="#66993E" id="Shape"/><path d="M43,46.88 L43,52.12 C43.0018195,53.7995315 41.9497287,55.299661 40.37,55.87 L31,54 L20,54 L10.63,55.87 C9.0502713,55.299661 7.9981805,53.7995315 8,52.12 L8,46.88 C7.99816271,45.2004629 9.05025997,43.7003242 10.63,43.13 L20,45 L31,45 L40.37,43.13 C41.94974,43.7003242 43.0018373,45.2004629 43,46.88 L43,46.88 Z" fill="#9ACA5C" id="Shape"/><circle cx="4.5" cy="13.5" fill="#F85B44" fill-rule="nonzero" id="Oval" r="2.5"/><circle cx="15.5" cy="2.5" fill="#F85B44" fill-rule="nonzero" id="Oval" r="2.5"/><circle cx="16.5" cy="12.5" fill="#F85B44" fill-rule="nonzero" id="Oval" r="2.5"/><circle cx="5.5" cy="25.5" fill="#FFEB49" fill-rule="nonzero" id="Oval" r="2.5"/><circle cx="3" cy="38" fill="#F85B44" fill-rule="nonzero" id="Oval" r="3"/><circle cx="12.5" cy="37.5" fill="#F85B44" fill-rule="nonzero" id="Oval" r="2.5"/><circle cx="49.5" cy="13.5" fill="#F85B44" fill-rule="nonzero" id="Oval" r="2.5"/><circle cx="38.5" cy="2.5" fill="#F85B44" fill-rule="nonzero" id="Oval" r="2.5"/><circle cx="37.5" cy="12.5" fill="#F85B44" fill-rule="nonzero" id="Oval" r="2.5"/><circle cx="48.5" cy="25.5" fill="#FFEB49" fill-rule="nonzero" id="Oval" r="2.5"/><circle cx="51" cy="38" fill="#F85B44" fill-rule="nonzero" id="Oval" r="3"/><circle cx="41.5" cy="37.5" fill="#F85B44" fill-rule="nonzero" id="Oval" r="2.5"/><circle cx="27" cy="4" fill="#FFEB49" fill-rule="nonzero" id="Oval" r="2"/><rect fill="#D5DF48" fill-rule="nonzero" height="15" id="Rectangle-path" rx="3" width="8" x="23" y="42"/><path d="M14.39471,47.3583 L17.80299,48.03991 C18.4989973,48.1790981 19,48.7902116 19,49.5 L19,49.5 C19.0000009,50.2097853 18.4990033,50.8208977 17.803,50.96009 L14.39509,51.64167 C13.8078919,51.7591093 13.1989667,51.6072546 12.7356741,51.2278424 C12.2723815,50.8484303 12.0034743,50.2813866 12.00286,49.68256 L12.00249,49.32156 C12.0018615,48.722009 12.2702383,48.1538009 12.7336962,47.7734477 C13.1971542,47.3930945 13.8068009,47.2407217 14.39471,47.3583 Z" fill="#66993E" id="Shape"/><path d="M39.60529,47.3583 L36.19701,48.03991 C35.5010027,48.1790981 35,48.7902116 35,49.5 L35,49.5 C34.9999991,50.2097853 35.5009967,50.8208977 36.197,50.96009 L39.60491,51.64167 C40.1921081,51.7591093 40.8010333,51.6072546 41.2643259,51.2278424 C41.7276185,50.8484303 41.9965257,50.2813866 41.99714,49.68256 L41.99751,49.32156 C41.9981385,48.722009 41.7297617,48.1538009 41.2663038,47.7734477 C40.8028458,47.3930945 40.1931991,47.2407217 39.60529,47.3583 Z" fill="#66993E" id="Shape"/></g><g id="Outline" stroke="#000000" stroke-linecap="round" stroke-linejoin="round"><path d="M2.7,15.23 C-0.36244409,21.5495149 -0.839582982,28.8142236 1.37,35.48" id="Shape" stroke-width="2"/><path d="M52.63,35.48 C54.839583,28.8142236 54.3624441,21.5495149 51.3,15.23" id="Shape" stroke-width="2"/><path d="M36.17,1.6 C30.2427808,-0.533333438 23.7572192,-0.533333438 17.83,1.6" id="Shape" stroke-width="2"/><path d="M48.81,11.1 C46.6350796,8.10822457 43.8676666,5.59610797 40.68,3.72" id="Shape" stroke-width="2"/><path d="M50.16,40.87 C48.9910119,42.828598 47.5724684,44.6269884 45.94,46.22" id="Shape" stroke-width="2"/><path d="M8.06,46.22 C6.42753158,44.6269884 5.00898813,42.828598 3.84,40.87" id="Shape" stroke-width="2"/><path d="M13.32,3.72 C10.1323334,5.59610797 7.36492044,8.10822457 5.19,11.1" id="Shape" stroke-width="2"/><path d="M23.04,44.56 C19.6053649,43.7836588 16.4752594,42.0134102 14.04,39.47" id="Shape" stroke-width="2"/><path d="M39.96,39.47 C37.5247406,42.0134102 34.3946351,43.7836588 30.96,44.56" id="Shape" stroke-width="2"/><path d="M35.43,11.11 C30.1620849,8.29666244 23.8379151,8.29666244 18.57,11.11" id="Shape" stroke-width="2"/><path d="M42.89,35.43 C46.672303,28.3392433 45.2746716,19.5979165 39.47,14.04" id="Shape" stroke-width="2"/><path d="M14.53,14.04 C8.72532845,19.5979165 7.32769695,28.3392433 11.11,35.43" id="Shape" stroke-width="2"/><circle cx="4.5" cy="13.5" id="Oval" r="2.5" stroke-width="2"/><circle cx="15.5" cy="2.5" id="Oval" r="2.5" stroke-width="2"/><circle cx="16.5" cy="12.5" id="Oval" r="2.5" stroke-width="2"/><circle cx="5.5" cy="25.5" id="Oval" r="2.5"/><circle cx="3" cy="38" id="Oval" r="3" stroke-width="2"/><circle cx="12.5" cy="37.5" id="Oval" r="2.5" stroke-width="2"/><circle cx="49.5" cy="13.5" id="Oval" r="2.5" stroke-width="2"/><circle cx="38.5" cy="2.5" id="Oval" r="2.5" stroke-width="2"/><circle cx="37.5" cy="12.5" id="Oval" r="2.5" stroke-width="2"/><circle cx="48.5" cy="25.5" id="Oval" r="2.5"/><circle cx="51" cy="38" id="Oval" r="3" stroke-width="2"/><circle cx="41.5" cy="37.5" id="Oval" r="2.5" stroke-width="2"/><circle cx="27" cy="4" id="Oval" r="2"/><rect height="15" id="Rectangle-path" rx="3" stroke-width="2" width="8" x="23" y="42"/><path d="M23,54 L12.78446,56.04311 C11.6093584,56.2781289 10.3907913,55.9739079 9.46404012,55.2141515 C8.53728891,54.4543951 7.99999809,53.3191529 8,52.12078 L8,46.87922 C7.99999809,45.6808471 8.53728891,44.5456049 9.46404012,43.7858485 C10.3907913,43.0260921 11.6093584,42.7218711 12.78446,42.95689 L23,45 L23,54 Z" id="Shape" stroke-width="2"/><path d="M14.39471,47.3583 L17.80299,48.03991 C18.4989973,48.1790981 19,48.7902116 19,49.5 L19,49.5 C19.0000009,50.2097853 18.4990033,50.8208977 17.803,50.96009 L14.39509,51.64167 C13.8078919,51.7591093 13.1989667,51.6072546 12.7356741,51.2278424 C12.2723815,50.8484303 12.0034743,50.2813866 12.00286,49.68256 L12.00249,49.32156 C12.0018615,48.722009 12.2702383,48.1538009 12.7336962,47.7734477 C13.1971542,47.3930945 13.8068009,47.2407217 14.39471,47.3583 Z" id="Shape"/><path d="M39.60529,47.3583 L36.19701,48.03991 C35.5010027,48.1790981 35,48.7902116 35,49.5 L35,49.5 C34.9999991,50.2097853 35.5009967,50.8208977 36.197,50.96009 L39.60491,51.64167 C40.1921081,51.7591093 40.8010333,51.6072546 41.2643259,51.2278424 C41.7276185,50.8484303 41.9965257,50.2813866 41.99714,49.68256 L41.99751,49.32156 C41.9981385,48.722009 41.7297617,48.1538009 41.2663038,47.7734477 C40.8028458,47.3930945 40.1931991,47.2407217 39.60529,47.3583 Z" id="Shape"/><path d="M31,54 L41.21554,56.04311 C42.3906416,56.2781289 43.6092087,55.9739079 44.5359599,55.2141515 C45.4627111,54.4543951 46.0000019,53.3191529 46,52.12078 L46,46.87922 C46.0000019,45.6808471 45.4627111,44.5456049 44.5359599,43.7858485 C43.6092087,43.0260921 42.3906416,42.7218711 41.21554,42.95689 L31,45 L31,54 Z" id="Shape" stroke-width="2"/></g></g></g></svg>